<svg width="41" height="41" viewBox="0 0 41 41" fill="none" xmlns="http://www.w3.org/2000/svg">
<g clip-path="url(#clip0_1_97)">
<path fill-rule="evenodd" clip-rule="evenodd" d="M20.3567 38.1747C30.1292 38.1747 38.0514 30.2525 38.0514 20.48C38.0514 10.7075 30.1292 2.78535 20.3567 2.78535C10.5842 2.78535 2.66206 10.7075 2.66206 20.48C2.66206 30.2525 10.5842 38.1747 20.3567 38.1747ZM20.3567 40.226C31.2622 40.226 40.1027 31.3854 40.1027 20.48C40.1027 9.57463 31.2622 0.73407 20.3567 0.73407C9.45134 0.73407 0.610779 9.57463 0.610779 20.48C0.610779 31.3854 9.45134 40.226 20.3567 40.226Z" fill="#1F2128"/>
<path fill-rule="evenodd" clip-rule="evenodd" d="M20.3567 38.1747C30.1292 38.1747 38.0514 30.2525 38.0514 20.48C38.0514 10.7075 30.1292 2.78535 20.3567 2.78535C10.5842 2.78535 2.66206 10.7075 2.66206 20.48C2.66206 30.2525 10.5842 38.1747 20.3567 38.1747ZM20.3567 40.226C31.2622 40.226 40.1027 31.3854 40.1027 20.48C40.1027 9.57463 31.2622 0.73407 20.3567 0.73407C9.45134 0.73407 0.610779 9.57463 0.610779 20.48C0.610779 31.3854 9.45134 40.226 20.3567 40.226Z" fill="white" fill-opacity="0.45"/>
</g>
<defs>
<clipPath id="clip0_1_97">
<rect width="40" height="40" fill="white" transform="translate(0.610779 0.553345)"/>
</clipPath>
</defs>
</svg>
