<svg width="82" height="25" viewBox="0 0 82 25" fill="none" xmlns="http://www.w3.org/2000/svg">
<path fill-rule="evenodd" clip-rule="evenodd" d="M61.7451 0.695912V20.8914C61.7264 21.2125 61.8585 21.5337 62.0853 21.7793C62.312 22.0249 62.6335 22.1571 62.9543 22.1571H63.3131C63.6533 22.1571 63.9748 22.0249 64.2015 21.7793C64.4276 21.5337 64.5604 21.2125 64.5604 20.8914V0.695912H66.9027V21.4204C66.9027 22.9884 65.6562 24.2542 64.0882 24.2919H62.2934C61.5183 24.2919 60.782 24.0086 60.2338 23.4607C59.6862 22.9128 59.3841 22.195 59.3841 21.4204V0.695912H61.7451ZM78.4077 0.469206C79.9757 0.506989 81.2416 1.98057 81.2416 3.56749V5.43777C81.2416 5.70229 81.0716 5.92899 80.8075 6.00455L78.8613 6.55239V3.86975C78.8613 3.18966 78.2943 2.62287 77.6147 2.62287C76.9344 2.62287 76.3675 3.17078 76.3675 3.86975V6.09899C76.3675 7.47813 77.388 9.2351 77.388 9.2351L80.1838 14.6193C81.3177 16.7541 81.223 18.3221 81.223 18.3221V21.307C81.223 22.0816 80.9209 22.8372 80.3726 23.404C79.825 23.9708 79.0694 24.2731 78.2757 24.2919H76.8024C75.215 24.1975 73.9685 22.8939 73.9685 21.307V17.9632C73.9685 17.6987 74.1385 17.472 74.4026 17.3964L76.3488 16.8486V20.9292C76.3488 21.6093 76.9158 22.1571 77.6147 22.1571C78.2943 22.1571 78.8613 21.5904 78.8426 20.8914V18.2276C78.8426 16.8674 77.8221 15.0538 77.8221 15.0538L75.0643 9.66955C73.9304 7.53482 74.0252 5.96673 74.0252 5.96673V3.56749C74.0252 1.94278 75.3284 0.469206 76.9725 0.469206H78.4077ZM34.1817 0.469206C35.7691 0.544779 37.0156 1.86721 37.0156 3.4541V21.3826C36.997 22.9506 35.7497 24.2353 34.1817 24.3108H32.3869C30.7816 24.2919 29.4777 22.9884 29.459 21.3826V3.43523C29.459 2.66069 29.7611 1.90499 30.3094 1.33824C30.857 0.771478 31.6126 0.469206 32.4063 0.450317L34.1817 0.469206ZM7.2609 0.695912L6.69412 2.66069C6.61855 2.92514 6.39185 3.09521 6.12741 3.09521H2.3679V10.6142H6.25966L5.69288 12.579C5.61731 12.8245 5.39062 13.0135 5.1261 13.0135H2.3679V21.6849H7.2609L6.71306 23.6307C6.6375 23.8952 6.4108 24.0653 6.14628 24.0653H0.0252686V0.695912H7.2609ZM49.0309 0.695912C50.6556 0.714807 51.9402 2.01835 51.9402 3.62418V21.1181C51.9402 22.7239 50.6369 24.0464 49.0309 24.0464H44.4969V0.695912H49.0309ZM18.1615 8.21492L20.3153 0.695912H22.7145L19.3707 12.39L22.7334 24.0841H20.3341L18.1615 16.5462L16.0079 24.0653H13.6086L16.9525 12.39L13.5897 0.695912H15.989L18.1615 8.21492ZM33.3887 22.195C33.7282 22.195 34.0497 22.0438 34.2765 21.7982C34.5032 21.5526 34.6353 21.2315 34.6166 20.8914V3.86975C34.6353 3.52967 34.5032 3.20853 34.2765 2.96296C34.0497 2.71738 33.7282 2.58512 33.3887 2.56618H33.0292C32.3303 2.604 31.7827 3.17078 31.7827 3.86975V20.8914C31.7827 21.5904 32.3303 22.1571 33.0292 22.195H33.3887ZM48.3699 21.7037C49.0309 21.7037 49.6165 21.3637 49.6165 20.4569V4.30428C49.6165 3.43523 49.0309 3.09521 48.3699 3.09521H46.8393V21.7037H48.3699Z" fill="#222222"/>
</svg>
