<svg width="34" height="34" viewBox="0 0 34 34" fill="none" xmlns="http://www.w3.org/2000/svg">
<path d="M23.4479 17.3806L33.2718 27.2044H29.7957C29.21 27.2044 28.6243 26.9587 28.2087 26.5432L19.0839 17.3806L28.2465 8.19907C28.6622 7.78342 29.2289 7.53784 29.8334 7.55672H33.2718L23.4479 17.3806ZM5.44393 8.19907C5.02831 7.78342 4.46155 7.53784 3.85701 7.55672H0.39978L10.2236 17.3806L0.39978 27.2044H3.8759C4.46155 27.2044 5.0472 26.9587 5.46282 26.5432L14.6066 17.3617L5.44393 8.19907ZM16.8358 19.6287L7.65431 28.7913C7.23866 29.2069 7.01197 29.7736 7.01197 30.3782V33.8354L16.8358 24.0117L26.6596 33.8354V30.3593C26.6596 29.7736 26.4329 29.188 26.0173 28.7724L16.8358 19.6287ZM16.8358 15.1324L26.0173 5.96981C26.4329 5.55419 26.6596 4.98743 26.6596 4.38289V0.925659L16.8358 10.7495L7.01197 0.925659V4.38289C7.01197 4.96854 7.23866 5.55419 7.65431 5.96981L16.8358 15.1324Z" fill="url(#paint0_linear_1_160)"/>
<defs>
<linearGradient id="paint0_linear_1_160" x1="0.388819" y1="17.377" x2="21.1735" y2="17.377" gradientUnits="userSpaceOnUse">
<stop stop-color="#00BFFF"/>
<stop offset="1" stop-color="#6619FF"/>
</linearGradient>
</defs>
</svg>
